<mxfile host="65bd71144e">
    <diagram id="HIP3nbAZw_EuaXWnEj3U" name="Page-1">
        <mxGraphModel dx="1002" dy="525" grid="1" gridSize="10" guides="1" tooltips="1" connect="1" arrows="1" fold="1" page="1" pageScale="1" pageWidth="850" pageHeight="1100" math="0" shadow="0">
            <root>
                <mxCell id="0"/>
                <mxCell id="1" parent="0"/>
                <mxCell id="7" value="http://ics2o.mths.ca" style="swimlane;whiteSpace=wrap;html=1;verticalAlign=middle;fillColor=#f5f5f5;strokeColor=#666666;swimlaneFillColor=#FFFDF2;fontColor=#333333;" parent="1" vertex="1">
                    <mxGeometry x="40" y="40" width="760" height="480" as="geometry"/>
                </mxCell>
                <mxCell id="22" value="" style="rounded=0;whiteSpace=wrap;html=1;fillColor=#dae8fc;strokeColor=#6c8ebf;" vertex="1" parent="7">
                    <mxGeometry y="25" width="760" height="45" as="geometry"/>
                </mxCell>
                <mxCell id="8" value="&lt;font style=&quot;font-size: 19px;&quot;&gt;Convert Fahrenheit to Celsius&lt;/font&gt;" style="text;html=1;align=center;verticalAlign=middle;resizable=0;points=[];autosize=1;strokeColor=none;fillColor=none;" vertex="1" parent="7">
                    <mxGeometry x="245" y="25" width="270" height="40" as="geometry"/>
                </mxCell>
                <mxCell id="11" value="&lt;font style=&quot;font-size: 18px; color: light-dark(rgb(92, 75, 175), rgb(237, 237, 237));&quot;&gt;&lt;span id=&quot;docs-internal-guid-fd4da282-7fff-7761-0c1d-2256c47554c5&quot;&gt;&lt;span style=&quot;font-size: 11pt; font-family: &amp;quot;Helvetica Neue&amp;quot;, sans-serif; background-color: transparent; font-variant-numeric: normal; font-variant-east-asian: normal; font-variant-alternates: normal; font-variant-position: normal; font-variant-emoji: normal; vertical-align: baseline; white-space: pre-wrap;&quot;&gt;°&lt;/span&gt;&lt;/span&gt;C = (&lt;span id=&quot;docs-internal-guid-fd4da282-7fff-7761-0c1d-2256c47554c5&quot;&gt;&lt;span style=&quot;font-size: 11pt; font-family: &amp;quot;Helvetica Neue&amp;quot;, sans-serif; background-color: transparent; font-variant-numeric: normal; font-variant-east-asian: normal; font-variant-alternates: normal; font-variant-position: normal; font-variant-emoji: normal; vertical-align: baseline; white-space: pre-wrap;&quot;&gt;°&lt;/span&gt;&lt;/span&gt;F - 32) * (5 / 9)&lt;/font&gt;" style="text;html=1;align=left;verticalAlign=middle;resizable=0;points=[];autosize=1;strokeColor=none;fillColor=none;" vertex="1" parent="7">
                    <mxGeometry x="35" y="123" width="190" height="40" as="geometry"/>
                </mxCell>
                <mxCell id="13" value="Please enter integers for fahrenheit:" style="text;html=1;align=left;verticalAlign=middle;resizable=0;points=[];autosize=1;strokeColor=none;fillColor=none;" vertex="1" parent="7">
                    <mxGeometry x="35" y="190" width="210" height="30" as="geometry"/>
                </mxCell>
                <mxCell id="15" value="&lt;font style=&quot;font-size: 15px;&quot;&gt;Fahrenheit:&amp;nbsp; &amp;nbsp; &amp;nbsp; &amp;nbsp; &amp;nbsp; &amp;nbsp; &amp;nbsp; &amp;nbsp; &amp;nbsp; &amp;nbsp; &amp;nbsp; &amp;nbsp; &amp;nbsp; &amp;nbsp; &amp;nbsp; &amp;nbsp; &amp;nbsp; &amp;nbsp; &amp;nbsp; &amp;nbsp; &amp;nbsp;&amp;nbsp;&lt;span style=&quot;color: rgb(0, 0, 0); font-family: &amp;quot;Helvetica Neue&amp;quot;, sans-serif; white-space: pre-wrap;&quot;&gt;°&lt;/span&gt;F&lt;/font&gt;" style="text;html=1;align=left;verticalAlign=middle;resizable=0;points=[];autosize=1;strokeColor=none;fillColor=none;" vertex="1" parent="7">
                    <mxGeometry x="35" y="240" width="290" height="30" as="geometry"/>
                </mxCell>
                <mxCell id="18" value="" style="rounded=1;whiteSpace=wrap;html=1;" vertex="1" parent="7">
                    <mxGeometry x="120" y="240" width="160" height="30" as="geometry"/>
                </mxCell>
                <mxCell id="19" value="&lt;font style=&quot;font-size: 18px;&quot;&gt;xx&amp;nbsp;&lt;span style=&quot;color: rgb(0, 0, 0); font-family: &amp;quot;Helvetica Neue&amp;quot;, sans-serif; text-align: left; white-space: pre-wrap;&quot;&gt;°&lt;/span&gt;F = xx&amp;nbsp;&lt;span style=&quot;color: rgb(0, 0, 0); font-family: &amp;quot;Helvetica Neue&amp;quot;, sans-serif; text-align: left; white-space: pre-wrap;&quot;&gt;°&lt;/span&gt;C&lt;/font&gt;" style="text;html=1;align=center;verticalAlign=middle;resizable=0;points=[];autosize=1;strokeColor=none;fillColor=none;" vertex="1" parent="7">
                    <mxGeometry x="40" y="380" width="130" height="40" as="geometry"/>
                </mxCell>
                <mxCell id="20" value="&lt;font style=&quot;font-size: 17px;&quot;&gt;Calculate&lt;/font&gt;" style="rounded=1;whiteSpace=wrap;html=1;fillColor=#EB995C;" vertex="1" parent="7">
                    <mxGeometry x="40" y="310" width="165" height="40" as="geometry"/>
                </mxCell>
                <mxCell id="9" value="&lt;font style=&quot;font-size: 18px;&quot;&gt;Formula&lt;/font&gt;" style="text;html=1;align=left;verticalAlign=middle;resizable=0;points=[];autosize=1;strokeColor=none;fillColor=none;" vertex="1" parent="1">
                    <mxGeometry x="75" y="123" width="90" height="40" as="geometry"/>
                </mxCell>
            </root>
        </mxGraphModel>
    </diagram>
</mxfile>